<svg xmlns="http://www.w3.org/2000/svg" width="1280" height="720" viewBox="0 0 1280 720" role="img" aria-labelledby="title desc">
  <title id="title">Enterprise architecture answer map</title>
  <desc id="desc">Enterprise architecture topics including 4A/5A, TOGAF ADM, and CBM.</desc>
  <rect width="1280" height="720" fill="#fffdf8"/>
  <text x="68" y="82" font-family="Georgia,serif" font-size="34" font-weight="700" fill="#1f2328">Enterprise Architecture: connect strategy, process, data, application, technology</text>
  <text x="68" y="120" font-family="Avenir Next,Arial,sans-serif" font-size="18" fill="#667078">李杉杉复习课重点：会说 4A/5A、TOGAF/ADM、CBM 如何把战略落到架构治理。</text>
  <g font-family="Avenir Next,Arial,sans-serif">
    <rect x="92" y="190" width="250" height="95" fill="#ffffff" stroke="#b54634" stroke-width="3"/>
    <text x="125" y="230" font-size="23" font-weight="700" fill="#b54634">Business</text>
    <text x="125" y="260" font-size="17" fill="#1f2328">strategy, capability, process</text>
    <rect x="377" y="190" width="250" height="95" fill="#ffffff" stroke="#355f91" stroke-width="3"/>
    <text x="410" y="230" font-size="23" font-weight="700" fill="#355f91">Application</text>
    <text x="410" y="260" font-size="17" fill="#1f2328">systems, services, integration</text>
    <rect x="662" y="190" width="250" height="95" fill="#ffffff" stroke="#14756f" stroke-width="3"/>
    <text x="695" y="230" font-size="23" font-weight="700" fill="#14756f">Data</text>
    <text x="695" y="260" font-size="17" fill="#1f2328">entities, ownership, flow</text>
    <rect x="947" y="190" width="250" height="95" fill="#ffffff" stroke="#4e7348" stroke-width="3"/>
    <text x="980" y="230" font-size="23" font-weight="700" fill="#4e7348">Technology</text>
    <text x="980" y="260" font-size="17" fill="#1f2328">platform, infra, standards</text>
    <rect x="185" y="410" width="355" height="120" fill="#f0eadf" stroke="#d9d2c4" stroke-width="3"/>
    <text x="220" y="455" font-size="23" font-weight="700" fill="#1f2328">TOGAF / ADM</text>
    <text x="220" y="490" font-size="18" fill="#1f2328">iterative architecture method + governance</text>
    <rect x="740" y="410" width="355" height="120" fill="#f0eadf" stroke="#d9d2c4" stroke-width="3"/>
    <text x="775" y="455" font-size="23" font-weight="700" fill="#1f2328">CBM</text>
    <text x="775" y="490" font-size="18" fill="#1f2328">capability map: identify value and gaps</text>
  </g>
  <line x1="217" y1="285" x2="362" y2="410" stroke="#1f2328" stroke-width="3"/>
  <line x1="502" y1="285" x2="362" y2="410" stroke="#1f2328" stroke-width="3"/>
  <line x1="787" y1="285" x2="918" y2="410" stroke="#1f2328" stroke-width="3"/>
  <line x1="1072" y1="285" x2="918" y2="410" stroke="#1f2328" stroke-width="3"/>
</svg>
